<mxfile host="app.diagrams.net" modified="2024-06-12T15:10:10.717Z" agent="Mozilla/5.0 (Windows NT 10.0; Win64; x64) AppleWebKit/537.36 (KHTML, like Gecko) Chrome/126.0.0.0 Safari/537.36" version="24.5.3" etag="mZ4vr7oo1ITbCOt3ksAu" type="github">
  <diagram name="PÃ¡gina-1" id="dh_8wNdB87JFbGCKcNuK">
    <mxGraphModel>
      <root>
        <mxCell id="0" />
        <mxCell id="1" parent="0" />
      </root>
    </mxGraphModel>
  </diagram>
</mxfile>
